<?xml version="1.0"?>
<svg xmlns="http://www.w3.org/2000/svg" xmlns:xlink="http://www.w3.org/1999/xlink" xmlns:svgjs="http://svgjs.com/svgjs" version="1.1" width="512" height="512" x="0" y="0" viewBox="0 0 512 512.00049" style="enable-background:new 0 0 512 512" xml:space="preserve" class=""><g><path xmlns="http://www.w3.org/2000/svg" d="m134.722656 232.722656c-19.003906 4.726563-32.339844 21.804688-32.324218 41.394532v58.683593h17.070312v-58.683593c0-11.746094 7.992188-21.984376 19.386719-24.832032l42.417969-10.609375c3.796874-.949219 6.460937-4.359375 6.460937-8.273437v-17.070313c0-3.234375-1.828125-6.191406-4.71875-7.636719-7.59375-3.753906-12.382813-11.503906-12.347656-19.976562v-49.183594c0-18.851562 15.28125-34.132812 34.132812-34.132812 18.851563 0 34.132813 15.28125 34.132813 34.132812v49.183594c.035156 8.472656-4.757813 16.222656-12.347656 19.976562-2.894532 1.445313-4.722657 4.402344-4.71875 7.636719v17.070313c0 3.914062 2.664062 7.324218 6.457031 8.273437l42.421875 10.609375c11.394531 2.847656 19.386718 13.085938 19.386718 24.832032v58.683593h17.066407v-58.683593c.019531-19.585938-13.3125-36.664063-32.316407-41.394532l-35.949218-8.988281v-5.546875c10.707031-7.3125 17.101562-19.457031 17.066406-32.425781v-49.226563c0-28.277344-22.921875-51.203125-51.199219-51.203125-28.277343 0-51.199219 22.925781-51.199219 51.203125v49.183594c-.050781 12.984375 6.34375 25.148438 17.066407 32.46875v5.546875zm0 0" fill="#92e9ab" data-original="#000000" style="" class=""/><path xmlns="http://www.w3.org/2000/svg" d="m136.535156 290.132812h17.066406v59.734376h-17.066406zm0 0" fill="#92e9ab" data-original="#000000" style="" class=""/><path xmlns="http://www.w3.org/2000/svg" d="m256 290.132812h17.066406v59.734376h-17.066406zm0 0" fill="#92e9ab" data-original="#000000" style="" class=""/><path xmlns="http://www.w3.org/2000/svg" d="m68.265625 477.867188h324.269531c18.851563 0 34.132813-15.28125 34.132813-34.132813v-68.265625h42.664062c4.714844 0 8.535157-3.824219 8.535157-8.535156v-136.535156c0-18.851563-15.28125-34.132813-34.132813-34.132813h-68.269531v-153.597656c0-4.714844-3.820313-8.535157-8.53125-8.535157h-324.265625c-4.714844 0-8.535157 3.820313-8.535157 8.535157v401.066406c0 18.851563 15.28125 34.132813 34.132813 34.132813zm392.535156-247.46875v128h-34.132812v-128c0-9.425782 7.640625-17.066407 17.066406-17.066407s17.066406 7.644531 17.066406 17.066407zm-46.457031-17.066407c-3.070312 5.167969-4.707031 11.058594-4.742188 17.066407v213.335937c0 9.425781-7.640624 17.066406-17.066406 17.066406-9.425781 0-17.070312-7.640625-17.070312-17.066406v-230.402344zm-363.144531-162.132812h307.203125v392.535156c-.011719 5.992187 1.570312 11.882813 4.582031 17.066406h-294.71875c-9.425781 0-17.066406-7.640625-17.066406-17.066406zm0 0" fill="#92e9ab" data-original="#000000" style="" class=""/><path xmlns="http://www.w3.org/2000/svg" d="m170.667969 375.46875h102.398437v17.066406h-102.398437zm0 0" fill="#92e9ab" data-original="#000000" style="" class=""/><path xmlns="http://www.w3.org/2000/svg" d="m102.398438 409.601562h204.800781v17.066407h-204.800781zm0 0" fill="#92e9ab" data-original="#000000" style="" class=""/><path xmlns="http://www.w3.org/2000/svg" d="m136.535156 375.46875h17.066406v17.066406h-17.066406zm0 0" fill="#92e9ab" data-original="#000000" style="" class=""/><path xmlns="http://www.w3.org/2000/svg" d="m59.734375 512h170.664063v-17.066406h-170.664063c-23.554687-.027344-42.640625-19.113282-42.667969-42.667969v-59.730469h-17.066406v59.730469c.0390625 32.976563 26.757812 59.695313 59.734375 59.734375zm0 0" fill="#92e9ab" data-original="#000000" style="" class=""/><path xmlns="http://www.w3.org/2000/svg" d="m247.464844 494.933594h17.070312v17.066406h-17.070312zm0 0" fill="#92e9ab" data-original="#000000" style="" class=""/><path xmlns="http://www.w3.org/2000/svg" d="m392.535156 34.132812v93.867188h17.066406v-93.867188c0-18.851562-15.285156-34.132812-34.136718-34.132812h-76.796875v17.066406h76.800781c9.425781 0 17.066406 7.640625 17.066406 17.066406zm0 0" fill="#92e9ab" data-original="#000000" style="" class=""/><path xmlns="http://www.w3.org/2000/svg" d="m264.535156 0h17.066406v17.066406h-17.066406zm0 0" fill="#92e9ab" data-original="#000000" style="" class=""/><path xmlns="http://www.w3.org/2000/svg" d="m76.800781 76.800781h51.199219v17.066407h-51.199219zm0 0" fill="#92e9ab" data-original="#000000" style="" class=""/><path xmlns="http://www.w3.org/2000/svg" d="m76.800781 110.933594h51.199219v17.066406h-51.199219zm0 0" fill="#92e9ab" data-original="#000000" style="" class=""/><path xmlns="http://www.w3.org/2000/svg" d="m273.066406 76.800781h59.734375v17.066407h-59.734375zm0 0" fill="#92e9ab" data-original="#000000" style="" class=""/><path xmlns="http://www.w3.org/2000/svg" d="m273.066406 110.933594h59.734375v17.066406h-59.734375zm0 0" fill="#92e9ab" data-original="#000000" style="" class=""/></g></svg>
